<?xml version="1.0" encoding="UTF-8"?>
<svg width="42px" height="42px" viewBox="0 0 42 42" version="1.1" xmlns="http://www.w3.org/2000/svg" xmlns:xlink="http://www.w3.org/1999/xlink">
    <!-- Generator: Sketch 62 (91390) - https://sketch.com -->
    <title>FACEBOOK WHITE</title>
    <desc>Created with Sketch.</desc>
    <g id="Page-1" stroke="none" stroke-width="1" fill="none" fill-rule="evenodd">
        <g id="Desktop-PPP-FULL" transform="translate(-409.000000, -2736.000000)">
            <g id="FOOTER" transform="translate(0.000000, 2576.000000)">
                <g id="Footer-Social-Copy-2" transform="translate(389.000000, 149.000000)">
                    <g id="FACEBOOK-WHITE" transform="translate(9.000000, 0.000000)">
                        <rect id="Rectangle" x="0" y="0" width="64" height="64"></rect>
                        <path d="M53,32 C53,20.4037934 43.5962066,11 32,11 C20.4037934,11 11,20.4037934 11,32 C11,43.5962066 20.4037934,53 32,53 C32.1233673,53 32.2460938,52.9974365 32.3691406,52.9951935 L32.3691406,36.647583 L27.8574219,36.647583 L27.8574219,31.3895722 L32.3691406,31.3895722 L32.3691406,27.5203247 C32.3691406,23.032959 35.1085357,20.5906066 39.1114044,20.5906066 C41.028244,20.5906066 42.6759186,20.7335205 43.15625,20.797287 L43.15625,25.4871674 L40.3960266,25.4871674 C38.2183533,25.4871674 37.7966613,26.522171 37.7966613,28.0407104 L37.7966613,31.3895722 L43.0037231,31.3895722 L42.3250428,36.647583 L37.7966613,36.647583 L37.7966613,52.1886597 C46.5743256,49.672287 53,41.5854797 53,32 Z" id="Path" fill="#FFFFFF" fill-rule="nonzero"></path>
                    </g>
                </g>
            </g>
        </g>
    </g>
</svg>