<?xml version="1.0" encoding="UTF-8"?>
<svg width="42px" height="42px" viewBox="0 0 42 42" version="1.1" xmlns="http://www.w3.org/2000/svg" xmlns:xlink="http://www.w3.org/1999/xlink">
    <!-- Generator: Sketch 62 (91390) - https://sketch.com -->
    <title>INSTAGRAM WHITE</title>
    <desc>Created with Sketch.</desc>
    <g id="Page-1" stroke="none" stroke-width="1" fill="none" fill-rule="evenodd">
        <g id="Desktop-PPP-FULL" transform="translate(-537.000000, -2736.000000)">
            <g id="FOOTER" transform="translate(0.000000, 2576.000000)">
                <g id="Footer-Social-Copy-2" transform="translate(389.000000, 149.000000)">
                    <g id="INSTAGRAM-WHITE" transform="translate(137.000000, 0.000000)">
                        <rect id="Rectangle" x="0" y="0" width="64" height="64"></rect>
                        <path d="M36.2,32.2625 C36.2,34.4371652 34.4371652,36.2 32.2625,36.2 C30.0878348,36.2 28.325,34.4371652 28.325,32.2625 C28.325,30.0878348 30.0878348,28.325 32.2625,28.325 C34.4371652,28.325 36.2,30.0878348 36.2,32.2625 Z" id="Path" fill="#FFFFFF" fill-rule="nonzero"></path>
                        <path d="M41.4851656,25.2753493 C41.2902018,24.7609424 40.9791651,24.2953317 40.5750113,23.9131469 C40.1824972,23.5196287 39.7046257,23.2167772 39.1759926,23.026944 C38.7472663,22.8648145 38.1032069,22.6718332 36.9169348,22.6192592 C35.6336657,22.5622778 35.2489113,22.55 32.0001617,22.55 C28.7510887,22.55 28.3663343,22.561963 27.0833885,22.6189444 C25.8971164,22.6718332 25.2527337,22.8648145 24.8243307,23.026944 C24.2956976,23.2167772 23.8175028,23.5196287 23.425312,23.9131469 C23.0211582,24.2953317 22.7101215,24.7606276 22.5148344,25.2753493 C22.348323,25.6927933 22.150126,26.3202186 22.0961311,27.4752731 C22.0376096,28.7244571 22.025,29.0990864 22.025,32.2626574 C22.025,35.4259136 22.0376096,35.8005429 22.0961311,37.0500417 C22.150126,38.2050962 22.348323,38.8322067 22.5148344,39.2496508 C22.7101215,39.7643725 23.0208349,40.2296683 23.4249887,40.6118531 C23.8175028,41.0053713 24.2953742,41.3082229 24.8240073,41.498056 C25.2527337,41.6605003 25.8971164,41.8534816 27.0833885,41.9060556 C28.3663343,41.9630371 28.7507654,41.975 31.9998383,41.975 C35.2492346,41.975 35.633989,41.9630371 36.9166115,41.9060556 C38.1028836,41.8534816 38.7472663,41.6605003 39.1759926,41.498056 C40.2371388,41.0995009 41.0758387,40.282872 41.4851656,39.2496508 C41.651677,38.8322067 41.849874,38.2050962 41.9041922,37.0500417 C41.9627137,35.8005429 41.975,35.4259136 41.975,32.2626574 C41.975,29.0990864 41.9627137,28.7244571 41.9041922,27.4752731 C41.8501973,26.3202186 41.6520003,25.6927933 41.4851656,25.2753493 L41.4851656,25.2753493 Z M32.0001617,38.3458183 C28.5493351,38.3458183 25.7519444,35.6223579 25.7519444,32.2623426 C25.7519444,28.9023273 28.5493351,26.1788669 32.0001617,26.1788669 C35.4506649,26.1788669 38.2480556,28.9023273 38.2480556,32.2623426 C38.2480556,35.6223579 35.4506649,38.3458183 32.0001617,38.3458183 Z M38.4950744,27.360051 C37.6887067,27.360051 37.0349476,26.7234961 37.0349476,25.9383486 C37.0349476,25.1532012 37.6887067,24.5166463 38.4950744,24.5166463 C39.301442,24.5166463 39.9552011,25.1532012 39.9552011,25.9383486 C39.9548778,26.7234961 39.301442,27.360051 38.4950744,27.360051 Z" id="Shape" fill="#FFFFFF" fill-rule="nonzero"></path>
                        <path d="M32,11 C20.4037934,11 11,20.4037934 11,32 C11,43.5962066 20.4037934,53 32,53 C43.5962066,53 53,43.5962066 53,32 C53,20.4037934 43.5962066,11 32,11 Z M43.9858551,36.9715424 C43.927536,38.2552032 43.7234191,39.1315918 43.425415,39.8987121 C42.7989654,41.5185089 41.5185089,42.7989654 39.8987121,43.425415 C39.1319122,43.7234191 38.2552032,43.9272156 36.9718628,43.9858551 C35.6859589,44.0444946 35.2751617,44.0585938 32.0003204,44.0585938 C28.7251587,44.0585938 28.314682,44.0444946 27.0284576,43.9858551 C25.7451172,43.9272156 24.8684082,43.7234191 24.1016083,43.425415 C23.2966767,43.1226044 22.5680084,42.6480408 21.9655914,42.0344086 C21.3522797,41.432312 20.877716,40.7033233 20.5749054,39.8987121 C20.2769013,39.1319122 20.0727844,38.2552032 20.0144653,36.9718628 C19.955185,35.6856385 19.9414062,35.2748413 19.9414062,32 C19.9414062,28.7251587 19.955185,28.3143615 20.0141449,27.0284576 C20.072464,25.7447968 20.2762604,24.8684082 20.5742645,24.1012879 C20.8770752,23.2966767 21.3519592,22.567688 21.9655914,21.9655914 C22.567688,21.3519592 23.2966767,20.8773956 24.1012879,20.574585 C24.8684082,20.2765809 25.7447968,20.0727844 27.0284576,20.0141449 C28.3143615,19.9555054 28.7251587,19.9414063 32,19.9414063 C35.2748413,19.9414063 35.6856385,19.9555054 36.9715424,20.0144653 C38.2552032,20.0727844 39.1315918,20.2765809 39.8987121,20.5742645 C40.7033233,20.8770752 41.432312,21.3519592 42.034729,21.9655914 C42.6480408,22.5680084 43.1229248,23.2966767 43.425415,24.1012879 C43.7237396,24.8684082 43.927536,25.7447968 43.9861756,27.0284576 C44.044815,28.3143615 44.0585937,28.7251587 44.0585937,32 C44.0585937,35.2748413 44.044815,35.6856385 43.9858551,36.9715424 L43.9858551,36.9715424 Z" id="Shape" fill="#FFFFFF" fill-rule="nonzero"></path>
                    </g>
                </g>
            </g>
        </g>
    </g>
</svg>