<?xml version="1.0" encoding="UTF-8"?>
<svg width="42px" height="42px" viewBox="0 0 42 42" version="1.1" xmlns="http://www.w3.org/2000/svg" xmlns:xlink="http://www.w3.org/1999/xlink">
    <!-- Generator: Sketch 62 (91390) - https://sketch.com -->
    <title>LINKEDIN WHITE</title>
    <desc>Created with Sketch.</desc>
    <g id="Page-1" stroke="none" stroke-width="1" fill="none" fill-rule="evenodd">
        <g id="Desktop-PPP-FULL" transform="translate(-473.000000, -2736.000000)">
            <g id="FOOTER" transform="translate(0.000000, 2576.000000)">
                <g id="Footer-Social-Copy-2" transform="translate(389.000000, 149.000000)">
                    <g id="LINKEDIN-WHITE" transform="translate(73.000000, 0.000000)">
                        <rect id="Rectangle" x="0" y="0" width="64" height="64"></rect>
                        <path d="M32,11 C20.4037934,11 11,20.4037934 11,32 C11,43.5962066 20.4037934,53 32,53 C43.5962066,53 53,43.5962066 53,32 C53,20.4037934 43.5962066,11 32,11 Z M25.897644,42.7460938 L20.7831879,42.7460938 L20.7831879,27.3591461 L25.897644,27.3591461 L25.897644,42.7460938 Z M23.3405762,25.2580566 L23.307251,25.2580566 C21.5910034,25.2580566 20.4810181,24.0766144 20.4810181,22.6000519 C20.4810181,21.0901642 21.6249695,19.9414062 23.3745422,19.9414062 C25.124115,19.9414062 26.2007752,21.0901642 26.2341004,22.6000519 C26.2341004,24.0766144 25.124115,25.2580566 23.3405762,25.2580566 Z M44.3392944,42.7460938 L39.2254791,42.7460938 L39.2254791,34.5144501 C39.2254791,32.4457245 38.4849549,31.0348511 36.6344452,31.0348511 C35.2216492,31.0348511 34.380188,31.9865418 34.0104065,32.9052276 C33.8751831,33.2339936 33.8421783,33.6934967 33.8421783,34.1533203 L33.8421783,42.7460938 L28.7280426,42.7460938 C28.7280426,42.7460938 28.7950135,28.8027039 28.7280426,27.3591461 L33.8421783,27.3591461 L33.8421783,29.5377808 C34.5218201,28.4893188 35.7378692,26.9980164 38.4513092,26.9980164 C41.8161926,26.9980164 44.3392944,29.1971588 44.3392944,33.9232483 L44.3392944,42.7460938 Z" id="Shape" fill="#FFFFFF" fill-rule="nonzero"></path>
                    </g>
                </g>
            </g>
        </g>
    </g>
</svg>