<?xml version="1.0" encoding="utf-8"?>
<!-- Generator: Adobe Illustrator 18.1.1, SVG Export Plug-In . SVG Version: 6.00 Build 0)  -->
<svg version="1.1" id="Layer_1" xmlns="http://www.w3.org/2000/svg" xmlns:xlink="http://www.w3.org/1999/xlink" x="0px" y="0px"
	 viewBox="0 0 221.5 175.4" enable-background="new 0 0 221.5 175.4" xml:space="preserve">
<g opacity="0.3">
	<path fill="#EF266F" d="M13.7,96.8c0-25.8,6.8-46.6,20.5-62.3C47.9,18.8,67.8,10.9,94,10.9v35.9c-20.1,0-30.2,12.9-30.2,38.7V94
		h36.4v70.6H25.7C17.7,141.8,13.7,119.2,13.7,96.8z M121.9,96.8c0-25.8,6.7-46.6,20.2-62.3c13.5-15.7,33.3-23.6,59.5-23.6v35.9
		c-19.7,0-29.6,12.9-29.6,38.7V94h35.9v70.6h-74.6C125.7,141.4,121.9,118.8,121.9,96.8z"/>
</g>
</svg>
