<?xml version="1.0" encoding="utf-8"?>
<!-- Generator: Adobe Illustrator 18.1.1, SVG Export Plug-In . SVG Version: 6.00 Build 0)  -->
<svg version="1.1" id="Layer_1" xmlns="http://www.w3.org/2000/svg" xmlns:xlink="http://www.w3.org/1999/xlink" x="0px" y="0px"
	 viewBox="-276 399.9 42 42" enable-background="new -276 399.9 42 42" xml:space="preserve">
<title>FACEBOOK WHITE</title>
<desc>Created with Sketch.</desc>
<path fill="#FFFFFF" d="M-255,400.1L-255,400.1c-11.5,0-20.8,9.3-20.8,20.8c0,11.5,9.3,20.8,20.8,20.8c11.5,0,20.8-9.3,20.8-20.8
	C-234.2,409.4-243.5,400.1-255,400.1z M-245.5,430.1L-245.5,430.1c-0.4,0.6-1.2,0.8-1.8,0.4c-4.9-3-11-3.7-18.3-2
	c-0.7,0.2-1.4-0.3-1.6-1c-0.2-0.7,0.3-1.4,1-1.6c7.9-1.8,14.7-1,20.2,2.3C-245.3,428.7-245.1,429.5-245.5,430.1z M-242.9,424.4
	L-242.9,424.4L-242.9,424.4c-0.5,0.8-1.5,1-2.2,0.5c-5.6-3.4-14.1-4.4-20.7-2.4c-0.9,0.3-1.8-0.2-2-1.1c-0.3-0.9,0.2-1.8,1.1-2
	c7.6-2.3,17-1.2,23.4,2.8C-242.7,422.7-242.4,423.7-242.9,424.4L-242.9,424.4C-242.9,424.4-242.9,424.4-242.9,424.4z M-242.7,418.5
	L-242.7,418.5c-6.7-4-17.8-4.4-24.2-2.4c-1,0.3-2.1-0.3-2.4-1.3c-0.3-1,0.3-2.1,1.3-2.4c7.4-2.2,19.6-1.8,27.3,2.8
	c0.9,0.5,1.2,1.7,0.7,2.7C-240.6,418.8-241.8,419.1-242.7,418.5z"/>
</svg>
