<?xml version="1.0" encoding="utf-8"?>
<!-- Generator: Adobe Illustrator 18.1.1, SVG Export Plug-In . SVG Version: 6.00 Build 0)  -->
<svg version="1.1" id="Layer_1" xmlns="http://www.w3.org/2000/svg" xmlns:xlink="http://www.w3.org/1999/xlink" x="0px" y="0px"
	 viewBox="0 0 201 115" enable-background="new 0 0 201 115" xml:space="preserve">
<g>
	<g>
		<path fill="#2C2225" d="M30.7,9.2v5H22v26.7h-6.3V14.2H6.9v-5H30.7z"/>
		<path fill="#2C2225" d="M55.9,18.5c1.7,1.9,2.6,4.5,2.6,7.9v14.4h-6.3V27.1c0-2-0.5-3.5-1.5-4.6c-1-1.1-2.4-1.6-4.2-1.6
			c-1.8,0-3.2,0.6-4.3,1.8s-1.6,2.8-1.6,5v13.2h-6.3V7.6h6.3V21c0.7-1.7,1.7-3,3.3-3.9c1.5-0.9,3.3-1.4,5.2-1.4
			C51.9,15.6,54.2,16.6,55.9,18.5z"/>
		<path fill="#2C2225" d="M87.2,29.6H68.9c0.1,2.2,0.7,3.8,1.8,4.9c1.1,1,2.5,1.6,4.1,1.6c1.5,0,2.7-0.4,3.7-1.1
			c1-0.7,1.6-1.7,1.9-2.9h6.7c-0.3,1.7-1,3.3-2.1,4.7c-1.1,1.4-2.5,2.5-4.2,3.2c-1.7,0.8-3.6,1.2-5.6,1.2c-2.4,0-4.6-0.5-6.5-1.5
			c-1.9-1-3.4-2.5-4.4-4.4c-1-1.9-1.6-4.2-1.6-6.8s0.5-4.9,1.6-6.8c1-1.9,2.5-3.4,4.4-4.4c1.9-1,4-1.5,6.5-1.5
			c2.5,0,4.6,0.5,6.4,1.5c1.8,1,3.3,2.4,4.3,4.2c1,1.8,1.5,3.8,1.5,6.1C87.4,28.1,87.3,28.8,87.2,29.6z M79.4,22.2
			c-1.2-1-2.6-1.6-4.2-1.6c-1.7,0-3.1,0.5-4.3,1.6c-1.2,1-1.8,2.6-1.9,4.6H81C81.1,24.8,80.6,23.3,79.4,22.2z"/>
		<path fill="#2C2225" d="M28.5,72.8H15.8l-2.2,6.4H6.8l11.7-31.3h7.2l11.6,31.3h-6.7L28.5,72.8z M26.8,68l-4.7-13.4L17.4,68H26.8z"
			/>
		<path fill="#2C2225" d="M62.4,56.8c1.7,1.9,2.6,4.5,2.6,7.9v14.4h-6.3V65.4c0-2-0.5-3.5-1.5-4.6c-1-1.1-2.4-1.6-4.2-1.6
			c-1.8,0-3.2,0.6-4.3,1.7c-1.1,1.2-1.6,2.8-1.6,5v13.2h-6.3V54.3h6.3v5c0.7-1.7,1.7-3,3.3-3.9c1.5-0.9,3.3-1.4,5.2-1.4
			C58.4,53.9,60.7,54.9,62.4,56.8z"/>
		<path fill="#2C2225" d="M89.7,56.6c2.1,1.7,3.5,4.1,4,7.1h-6.7c-0.3-1.3-0.9-2.4-1.8-3.1c-1-0.8-2.2-1.1-3.6-1.1
			c-1.7,0-3.1,0.6-4.2,1.9c-1.1,1.2-1.7,3.1-1.7,5.5s0.6,4.2,1.7,5.5c1.1,1.2,2.5,1.9,4.2,1.9c1.5,0,2.7-0.4,3.6-1.1
			c1-0.8,1.6-1.8,1.8-3.1h6.7c-0.5,3-1.9,5.4-4,7.1c-2.1,1.7-4.8,2.6-8,2.6c-2.4,0-4.6-0.5-6.5-1.5c-1.9-1-3.4-2.5-4.4-4.4
			c-1-1.9-1.6-4.2-1.6-6.8s0.5-4.9,1.6-6.8c1-1.9,2.5-3.4,4.4-4.4c1.9-1,4-1.5,6.5-1.5C84.9,54,87.6,54.8,89.7,56.6z"/>
		<path fill="#2C2225" d="M119.9,56.8c1.7,1.9,2.6,4.5,2.6,7.9v14.4h-6.3V65.4c0-2-0.5-3.5-1.5-4.6c-1-1.1-2.4-1.6-4.2-1.6
			c-1.8,0-3.2,0.6-4.3,1.7c-1.1,1.2-1.6,2.8-1.6,5v13.2h-6.3V45.9h6.3v13.3c0.7-1.7,1.7-3,3.3-3.9c1.5-0.9,3.3-1.4,5.2-1.4
			C115.9,53.9,118.2,54.9,119.9,56.8z"/>
		<path fill="#2C2225" d="M146.1,55.5c1.9,1,3.4,2.5,4.6,4.4c1.1,1.9,1.7,4.2,1.7,6.8s-0.6,4.9-1.7,6.8c-1.1,1.9-2.6,3.4-4.6,4.4
			c-1.9,1-4.1,1.5-6.5,1.5c-2.4,0-4.6-0.5-6.5-1.5c-1.9-1-3.4-2.5-4.6-4.4c-1.1-1.9-1.7-4.2-1.7-6.8s0.6-4.9,1.7-6.8
			c1.1-1.9,2.6-3.4,4.6-4.4c1.9-1,4.1-1.5,6.5-1.5C141.9,54,144.1,54.5,146.1,55.5z M135,61.3c-1.2,1.2-1.8,3-1.8,5.4
			s0.6,4.2,1.8,5.4s2.7,1.9,4.5,1.9c1.8,0,3.3-0.6,4.5-1.9s1.8-3,1.8-5.4s-0.6-4.2-1.8-5.4c-1.2-1.2-2.7-1.9-4.5-1.9
			C137.8,59.4,136.3,60.1,135,61.3z"/>
		<path fill="#2C2225" d="M166.8,55.3c1.5-0.9,3.2-1.4,5.1-1.4v6.8H170c-4.6,0-7,2.2-7,6.5v12h-6.3V54.3h6.3V59
			C164,57.5,165.2,56.2,166.8,55.3z"/>
		<path fill="#2C2225" d="M180.6,72.5v6.6h-6.8v-6.6H180.6z"/>
	</g>
	<g>
		<path fill="#2C2225" d="M17.4,89.1v2.3h-4v12.1h-2.9V91.4h-4v-2.3H17.4z"/>
		<path fill="#2C2225" d="M28.8,93.3c0.8,0.9,1.2,2.1,1.2,3.6v6.6h-2.9v-6.2c0-0.9-0.2-1.6-0.7-2.1s-1.1-0.7-1.9-0.7
			c-0.8,0-1.5,0.3-2,0.8c-0.5,0.5-0.7,1.3-0.7,2.3v6H19V88.4h2.9v6.1c0.3-0.8,0.8-1.4,1.5-1.8c0.7-0.4,1.5-0.6,2.4-0.6
			C27,92,28.1,92.5,28.8,93.3z"/>
		<path fill="#2C2225" d="M43.1,98.4h-8.3c0,1,0.3,1.7,0.8,2.2c0.5,0.5,1.1,0.7,1.9,0.7c0.7,0,1.2-0.2,1.7-0.5s0.7-0.8,0.8-1.3h3
			c-0.1,0.8-0.5,1.5-1,2.1c-0.5,0.6-1.1,1.1-1.9,1.5s-1.6,0.5-2.6,0.5c-1.1,0-2.1-0.2-2.9-0.7c-0.9-0.5-1.5-1.1-2-2
			c-0.5-0.9-0.7-1.9-0.7-3.1s0.2-2.2,0.7-3.1c0.5-0.9,1.1-1.5,2-2c0.9-0.5,1.8-0.7,2.9-0.7c1.1,0,2.1,0.2,2.9,0.7
			c0.8,0.5,1.5,1.1,1.9,1.9s0.7,1.7,0.7,2.8C43.2,97.7,43.1,98,43.1,98.4z M39.5,95c-0.5-0.5-1.2-0.7-1.9-0.7c-0.8,0-1.4,0.2-2,0.7
			c-0.5,0.5-0.8,1.2-0.9,2.1h5.5C40.3,96.2,40.1,95.5,39.5,95z"/>
		<path fill="#2C2225" d="M52.1,92.7c0.7,0.4,1.2,1.1,1.4,1.8v-2.3h2.9v11.3h-2.9v-2.4c-0.3,0.8-0.8,1.4-1.4,1.8
			c-0.7,0.5-1.5,0.7-2.4,0.7c-1,0-1.8-0.2-2.6-0.7c-0.8-0.5-1.4-1.1-1.8-2s-0.6-1.9-0.6-3.1s0.2-2.2,0.6-3.1s1-1.5,1.8-2
			c0.8-0.5,1.6-0.7,2.6-0.7C50.6,92.1,51.4,92.3,52.1,92.7z M48.4,95.4c-0.5,0.6-0.8,1.4-0.8,2.4s0.3,1.8,0.8,2.4s1.3,0.9,2.2,0.9
			c0.9,0,1.6-0.3,2.2-0.9c0.6-0.6,0.8-1.4,0.8-2.4c0-1-0.3-1.8-0.8-2.4c-0.6-0.6-1.3-0.9-2.2-0.9C49.6,94.6,48.9,94.9,48.4,95.4z"/>
		<path fill="#2C2225" d="M65,101v2.5h-1.5c-1.3,0-2.2-0.3-2.9-0.9c-0.7-0.6-1-1.6-1-3.1v-4.9H58v-2.4h1.6v-2.8h2.9v2.8H65v2.4h-2.5
			v4.9c0,0.5,0.1,0.9,0.3,1.1c0.2,0.2,0.6,0.3,1.1,0.3H65z"/>
		<path fill="#2C2225" d="M71.6,92.7c0.7-0.4,1.5-0.6,2.3-0.6v3.1h-0.8c-2.1,0-3.2,1-3.2,2.9v5.4h-2.9V92.2h2.9v2.2
			C70.4,93.6,70.9,93.1,71.6,92.7z"/>
		<path fill="#2C2225" d="M86.1,98.4h-8.3c0,1,0.3,1.7,0.8,2.2c0.5,0.5,1.1,0.7,1.9,0.7c0.7,0,1.2-0.2,1.7-0.5s0.7-0.8,0.8-1.3h3
			c-0.1,0.8-0.5,1.5-1,2.1c-0.5,0.6-1.1,1.1-1.9,1.5s-1.6,0.5-2.6,0.5c-1.1,0-2.1-0.2-2.9-0.7c-0.9-0.5-1.5-1.1-2-2
			c-0.5-0.9-0.7-1.9-0.7-3.1s0.2-2.2,0.7-3.1c0.5-0.9,1.1-1.5,2-2c0.9-0.5,1.8-0.7,2.9-0.7c1.1,0,2.1,0.2,2.9,0.7
			c0.8,0.5,1.5,1.1,1.9,1.9s0.7,1.7,0.7,2.8C86.2,97.7,86.1,98,86.1,98.4z M82.5,95c-0.5-0.5-1.2-0.7-1.9-0.7c-0.8,0-1.4,0.2-2,0.7
			c-0.5,0.5-0.8,1.2-0.9,2.1h5.5C83.3,96.2,83.1,95.5,82.5,95z"/>
		<path fill="#2C2225" d="M103.6,90.3c1.2,0.9,2,2.2,2.3,3.8h-3c-0.3-0.8-0.8-1.4-1.5-1.8c-0.7-0.4-1.5-0.7-2.4-0.7
			c-0.8,0-1.4,0.2-2.1,0.6c-0.6,0.4-1.1,0.9-1.4,1.6s-0.5,1.5-0.5,2.5c0,0.9,0.2,1.8,0.5,2.5s0.8,1.3,1.4,1.6s1.3,0.6,2.1,0.6
			c0.9,0,1.7-0.2,2.4-0.7c0.7-0.4,1.1-1.1,1.5-1.8h3c-0.4,1.6-1.2,2.8-2.3,3.8c-1.2,0.9-2.7,1.4-4.5,1.4c-1.4,0-2.6-0.3-3.6-0.9
			c-1.1-0.6-1.9-1.5-2.4-2.6c-0.6-1.1-0.9-2.4-0.9-3.8c0-1.4,0.3-2.7,0.9-3.8c0.6-1.1,1.4-2,2.4-2.6c1-0.6,2.3-0.9,3.7-0.9
			C100.9,89,102.4,89.4,103.6,90.3z"/>
		<path fill="#2C2225" d="M116.3,92.8c0.9,0.5,1.6,1.1,2.1,2c0.5,0.9,0.8,1.9,0.8,3.1s-0.3,2.2-0.8,3.1c-0.5,0.9-1.2,1.5-2.1,2
			c-0.9,0.5-1.9,0.7-3,0.7s-2.1-0.2-3-0.7c-0.9-0.5-1.6-1.1-2.1-2s-0.8-1.9-0.8-3.1s0.3-2.2,0.8-3.1s1.2-1.5,2.1-2
			c0.9-0.5,1.9-0.7,3-0.7S115.4,92.3,116.3,92.8z M111.3,95.4c-0.6,0.6-0.8,1.4-0.8,2.5s0.3,1.9,0.8,2.5c0.6,0.6,1.2,0.8,2,0.8
			c0.8,0,1.5-0.3,2-0.8c0.6-0.6,0.8-1.4,0.8-2.5s-0.3-1.9-0.8-2.5c-0.6-0.6-1.2-0.8-2-0.8C112.5,94.5,111.9,94.8,111.3,95.4z"/>
		<path fill="#2C2225" d="M138.8,93.3c0.8,0.9,1.2,2.1,1.2,3.6v6.6h-2.9v-6.2c0-0.9-0.2-1.5-0.7-2c-0.4-0.5-1-0.7-1.8-0.7
			c-0.8,0-1.4,0.3-1.9,0.8s-0.7,1.2-0.7,2.2v6h-2.9v-6.2c0-0.9-0.2-1.5-0.7-2c-0.4-0.5-1.1-0.7-1.8-0.7c-0.8,0-1.4,0.3-1.9,0.8
			c-0.5,0.5-0.7,1.2-0.7,2.2v6h-2.9V92.2h2.9v2.1c0.3-0.7,0.8-1.3,1.4-1.7c0.6-0.4,1.4-0.6,2.3-0.6c0.9,0,1.7,0.2,2.4,0.7
			c0.7,0.4,1.2,1.1,1.5,1.9c0.4-0.8,0.9-1.4,1.6-1.8c0.7-0.5,1.5-0.7,2.4-0.7C136.9,92,138,92.5,138.8,93.3z"/>
		<path fill="#2C2225" d="M151.9,92.8c0.8,0.5,1.4,1.1,1.8,2c0.4,0.9,0.6,1.9,0.6,3.1s-0.2,2.2-0.6,3.1c-0.4,0.9-1,1.5-1.8,2
			c-0.8,0.5-1.6,0.7-2.6,0.7c-1,0-1.8-0.2-2.4-0.7c-0.7-0.5-1.2-1.1-1.4-1.8v7.8h-2.9V92.2h2.9v2.3c0.3-0.8,0.8-1.4,1.4-1.8
			c0.7-0.4,1.5-0.7,2.4-0.7C150.2,92.1,151.1,92.3,151.9,92.8z M146.2,95.5c-0.6,0.6-0.8,1.4-0.8,2.4c0,1,0.3,1.8,0.8,2.4
			c0.6,0.6,1.3,0.9,2.2,0.9c0.9,0,1.6-0.3,2.2-0.9c0.5-0.6,0.8-1.4,0.8-2.4s-0.3-1.8-0.8-2.4c-0.5-0.6-1.3-0.9-2.2-0.9
			C147.5,94.6,146.8,94.9,146.2,95.5z"/>
		<path fill="#2C2225" d="M163.2,92.7c0.7,0.4,1.2,1.1,1.4,1.8v-2.3h2.9v11.3h-2.9v-2.4c-0.3,0.8-0.8,1.4-1.4,1.8
			c-0.7,0.5-1.5,0.7-2.4,0.7c-1,0-1.8-0.2-2.6-0.7c-0.8-0.5-1.4-1.1-1.8-2c-0.4-0.9-0.6-1.9-0.6-3.1s0.2-2.2,0.6-3.1
			c0.4-0.9,1-1.5,1.8-2c0.8-0.5,1.6-0.7,2.6-0.7C161.7,92.1,162.5,92.3,163.2,92.7z M159.5,95.4c-0.5,0.6-0.8,1.4-0.8,2.4
			s0.3,1.8,0.8,2.4s1.3,0.9,2.2,0.9c0.9,0,1.6-0.3,2.2-0.9c0.6-0.6,0.8-1.4,0.8-2.4c0-1-0.3-1.8-0.8-2.4c-0.6-0.6-1.3-0.9-2.2-0.9
			C160.7,94.6,160,94.9,159.5,95.4z"/>
		<path fill="#2C2225" d="M180,93.3c0.8,0.9,1.2,2.1,1.2,3.6v6.6h-2.9v-6.2c0-0.9-0.2-1.6-0.7-2.1c-0.5-0.5-1.1-0.7-1.9-0.7
			c-0.8,0-1.5,0.3-2,0.8s-0.7,1.3-0.7,2.3v6h-2.9V92.2h2.9v2.3c0.3-0.8,0.8-1.4,1.5-1.8s1.5-0.6,2.4-0.6
			C178.1,92,179.2,92.5,180,93.3z"/>
		<path fill="#2C2225" d="M185.6,92.2l3.1,7.7l2.9-7.7h3.2l-6.9,16.7h-3.2l2.5-5.7l-4.8-11H185.6z"/>
	</g>
</g>
</svg>
